#!OML:ASF E:\Steps\Project 1\Capture day 1\Session 2\Subject.ASF
:FULLY-SPECIFIED
:DEGREES
963
root -9.10547 16.1159 -11.3055 -97.4514 -87.5213 119.678
lowerback -30.7249 -3.30297 -5.64939
upperback -0.857455 -2.48634 -0.546906
thorax 15.3609 -1.57478 1.41788
lowerneck 18.8567 1.44364 -11.1985
upperneck -19.2333 1.60284 13.2064
head -9.3577 0.0418502 6.33612
rclavicle -3.27995e-015 -1.03368e-014
rhumerus -44.8576 -24.629 -70.9047
rradius 25.8374
rwrist 2.5058
rhand -6.06388 -53.3613
rfingers 7.12502
rthumb 19.7709 277.624
lclavicle -3.27995e-015 -1.03368e-014
lhumerus -28.0651 2.20885 80.4822
lradius 29.5387
lwrist 4.6064
lhand -24.2701 -10.6194
lfingers 7.12502
lthumb 2.21654 19.3488
rfemur -25.505 12.4756 14.8489
rtibia 13.8317
rfoot -18.0455 -2.02691
rtoes -34.6479
lfemur -20.1895 -8.17544 -21.671
ltibia 10.732
lfoot -6.71947 0.47227
ltoes -41.2361
964
root -9.13488 16.1208 -11.3197 -94.2674 -87.4669 116.306
lowerback -30.3858 -3.35362 -6.05156
upperback -0.892609 -2.473 -0.283503
thorax 15.1917 -1.60174 1.94154
lowerneck 18.8728 1.46987 -11.215
upperneck -19.5902 1.59286 12.9211
head -9.48031 0.0692851 6.25215
rclavicle 1.00883e-014 2.34566e-014
rhumerus -44.8144 -25.1577 -70.2798
rradius 26.1133
rwrist 3.17093
rhand -5.98967 -53.1663
rfingers 7.12502
rthumb 19.8423 277.827
lclavicle 1.00883e-014 2.34566e-014
lhumerus -28.0964 3.96343 80.6346
lradius 27.5342
lwrist 2.7221
lhand -23.4125 -11.0922
lfingers 7.12502
lthumb 3.04472 18.8659
rfemur -25.0524 13.1809 14.7073
rtibia 13.6364
rfoot -17.9095 -2.71085
rtoes -34.6596
lfemur -19.9661 -7.87793 -21.767
ltibia 10.8824
lfoot -6.70278 0.105226
ltoes -38.9733
965
root -9.16861 16.1219 -11.3303 -92.2073 -87.2374 114.189
lowerback -30.2701 -3.39593 -6.48428
upperback -0.903353 -2.41999 -0.0494521
thorax 15.1474 -1.61446 2.45688
lowerneck 18.4679 1.51842 -11.3044
upperneck -19.6965 1.59723 12.5522
head -9.43997 0.130002 6.12826
rclavicle 2.70347e-014 2.8625e-014
rhumerus -44.6461 -25.594 -69.6964
rradius 26.3561
rwrist 3.68167
rhand -5.44201 -53.1577
rfingers 7.12502
rthumb 20.3687 277.891
lclavicle 2.70347e-014 2.8625e-014
lhumerus -28.257 5.43427 81.0628
lradius 25.9481
lwrist 1.69397
lhand -23.8029 -10.4652
lfingers 7.12502
lthumb 2.66773 19.4978
rfemur -24.8312 13.4402 14.4221
rtibia 13.5946
rfoot -17.4055 -3.18304
rtoes -38.5808
lfemur -19.8182 -8.22578 -21.9752
ltibia 10.9793
lfoot -6.82384 0.413732
ltoes -37.8731
966
root -9.20936 16.1169 -11.3397 -88.199 -87.0865 110.251
lowerback -30.3472 -3.36743 -6.40561
upperback -0.960032 -2.38538 -0.218474
thorax 15.1003 -1.58793 2.24168
lowerneck 18.9621 1.341 -11.1859
upperneck -20.1175 1.41259 12.8002
head -9.65357 -0.00825262 6.25329
rclavicle -1.16786e-015 1.27222e-014
rhumerus -44.6133 -26.1316 -69.7737
rradius 26.5333
rwrist 3.96644
rhand -5.14802 -53.0378
rfingers 7.12502
rthumb 20.6512 278.041
lclavicle -1.16786e-015 1.27222e-014
lhumerus -28.6584 5.7548 81.0828
lradius 24.7176
lwrist 2.04106
lhand -24.6865 -9.72266
lfingers 7.12502
lthumb 1.81438 20.2494
rfemur -24.6436 13.9491 14.104
rtibia 13.4655
rfoot -17.6114 -3.59943
rtoes -35.0152
lfemur -19.8035 -8.85445 -22.1358
ltibia 11.1187
lfoot -6.98916 0.934392
ltoes -38.9508
967
root -9.25625 16.1144 -11.3527 -83.2781 -87.225 105.177
lowerback -30.2645 -3.35812 -6.26535
upperback -0.97984 -2.4306 -0.200252
thorax 15.0411 -1.59719 2.17108
lowerneck 19.4178 1.29219 -11.1248
upperneck -20.4754 1.35933 12.8847
head -9.85736 -0.0599282 6.30875
rclavicle -3.05631e-015 -7.95139e-016
rhumerus -44.3812 -25.7872 -70.1903
rradius 26.7183
rwrist 3.22942
rhand -5.12804 -52.7255
rfingers 7.12502
rthumb 20.6704 278.355
lclavicle -3.05631e-015 -7.95139e-016
lhumerus -28.8538 6.81033 80.8881
lradius 22.9632
lwrist 1.3921
lhand -25.0932 -9.78424
lfingers 7.12502
lthumb 1.42155 20.1908
rfemur -23.9985 14.4844 14.2447
rtibia 13.0619
rfoot -18.0412 -4.02175
rtoes -32.1245
lfemur -19.4453 -9.03869 -22.0232
ltibia 11.0649
lfoot -7.07409 0.826706
ltoes -39.2142
968
root -9.30186 16.1098 -11.3631 -78.9271 -87.4376 100.86
lowerback -30.3832 -3.3343 -5.95729
upperback -1.03947 -2.51413 -0.125228
thorax 15.0272 -1.61529 2.04963
lowerneck 19.1466 1.63534 -12.4545
upperneck -20.192 1.6671 13.8201
head -9.7683 0.0905582 6.83404
rclavicle -8.99501e-015 -1.92821e-014
rhumerus -44.1347 -25.1771 -70.6784
rradius 27.0249
rwrist 2.129
rhand -5.31053 -52.5033
rfingers 7.12502
rthumb 20.495 278.558
lclavicle -8.99501e-015 -1.92821e-014
lhumerus -29.4031 8.18932 80.3203
lradius 21.4833
lwrist -0.232345
lhand -24.6066 -9.35562
lfingers 7.12502
lthumb 1.8915 20.6157
rfemur -23.6648 14.4798 14.5463
rtibia 12.7536
rfoot -18.2432 -4.16267
rtoes -30.6686
lfemur -19.2738 -9.20771 -21.7224
ltibia 10.9248
lfoot -7.10563 0.660741
ltoes -37.5796
969
root -9.34387 16.1076 -11.3697 -72.2211 -87.5897 94.211
lowerback -30.4703 -3.36408 -5.61463
upperback -1.11493 -2.68206 -0.0615323
thorax 14.9844 -1.66784 1.86353
lowerneck 19.4199 1.62488 -12.4977
upperneck -20.4084 1.63623 13.8764
head -9.89182 0.0659331 6.88495
rclavicle -4.5472e-015 1.17283e-014
rhumerus -44.0897 -25.2749 -70.7805
rradius 27.3613
rwrist 1.97814
rhand -5.34505 -52.3391
rfingers 7.12502
rthumb 20.4619 278.719
lclavicle -4.5472e-015 1.17283e-014
lhumerus -30.0383 9.48839 79.6899
lradius 20.1271
lwrist -1.96854
lhand -23.9467 -8.72019
lfingers 7.12502
lthumb 2.52887 21.2446
rfemur -23.3879 13.65 14.9242
rtibia 12.4868
rfoot -18.1937 -3.7531
rtoes -31.2399
lfemur -19.0877 -5.23575 -21.9252
ltibia 10.3142
lfoot -6.032 -3.26529
ltoes -34.6106
970
root -9.38029 16.1027 -11.3847 -67.0849 -87.5555 89.2416
lowerback -30.6219 -3.42384 -5.58905
upperback -1.20082 -2.7728 -0.0257083
thorax 14.9594 -1.7077 1.84683
lowerneck 19.7969 1.56884 -12.3883
upperneck -20.7689 1.57514 13.8914
head -10.0803 0.0163736 6.90845
rclavicle -1.73937e-015 -4.17448e-015
rhumerus -44.0277 -25.6297 -70.7913
rradius 27.556
rwrist 2.12158
rhand -5.2732 -52.2161
rfingers 7.12502
rthumb 20.5309 278.85
lclavicle -1.73937e-015 -4.17448e-015
lhumerus -30.6484 10.3228 79.2138
lradius 18.8097
lwrist -3.18319
lhand -23.4246 -8.48131
lfingers 7.12502
lthumb 3.03305 21.4769
rfemur -23.2318 12.2176 15.3175
rtibia 12.2369
rfoot -18.2077 -2.53181
rtoes -31.2178
lfemur -19.1799 -3.47845 -22.1027
ltibia 10.3384
lfoot -5.7103 -5.01719
ltoes -32.9677
971
root -9.42263 16.0948 -11.3887 -64.4404 -87.3778 86.7884
lowerback -30.9381 -3.47872 -5.62242
upperback -1.24687 -2.81941 -0.0229661
thorax 15.0505 -1.73277 1.83649
lowerneck 19.8557 1.58487 -12.306
upperneck -21.0161 1.59356 13.7313
head -10.1805 0.0350064 6.84587
rclavicle -2.96686e-014 -4.17448e-015
rhumerus -43.7939 -25.5949 -70.8829
rradius 27.6282
rwrist 1.96934
rhand -5.16289 -52.0762
rfingers 7.12502
rthumb 20.6369 279.001
lclavicle -2.96686e-014 -4.17448e-015
lhumerus -31.1803 11.3101 78.7189
lradius 17.3356
lwrist -4.93234
lhand -22.6736 -8.31379
lfingers 7.12502
lthumb 3.7583 21.6328
rfemur -23.1379 11.1157 15.2856
rtibia 11.9755
rfoot -18.2699 -1.64536
rtoes -31.1092
lfemur -19.2416 -3.9549 -22.2775
ltibia 10.4037
lfoot -6.0216 -4.60394
ltoes -35.1356
972
root -9.45946 16.0904 -11.3967 -61.8753 -87.2792 84.3329
lowerback -31.0441 -3.52833 -5.63425
upperback -1.33027 -2.89464 0.0699898
thorax 15.0114 -1.7697 1.91015
lowerneck 19.5235 1.73707 -12.3161
upperneck -21.0722 1.74446 13.3096
head -10.1575 0.164365 6.66206
rclavicle -5.2181e-016 2.98177e-015
rhumerus -43.6419 -25.4069 -70.8396
rradius 27.7964
rwrist 1.72854
rhand -5.34226 -51.8952
rfingers 7.12502
rthumb 20.4645 279.163
lclavicle -5.2181e-016 2.98177e-015
lhumerus -31.7965 12.501 78.129
lradius 15.8362
lwrist -7.15113
lhand -21.9395 -8.56322
lfingers 7.12502
lthumb 4.46721 21.3697
rfemur -22.958 10.8957 15.259
rtibia 11.7089
rfoot -18.2743 -1.57203
rtoes -29.6691
lfemur -19.2569 -4.18082 -22.3675
ltibia 10.5034
lfoot -6.35161 -4.36392
ltoes -37.9794
973
root -9.49575 16.0859 -11.4082 -59.4954 -87.2538 82.0796
lowerback -31.1532 -3.48167 -5.54064
upperback -1.43596 -2.87589 0.112825
thorax 14.9331 -1.75635 1.91205
lowerneck 19.6252 1.76217 -12.2977
upperneck -21.1369 1.75461 13.2027
head -10.2005 0.178526 6.62216
rclavicle -2.06736e-014 -1.13307e-014
rhumerus -43.5941 -25.2395 -70.8411
rradius 27.9633
rwrist 1.17203
rhand -5.29873 -51.7179
rfingers 7.12502
rthumb 20.5064 279.345
lclavicle -2.06736e-014 -1.13307e-014
lhumerus -32.4449 13.5834 77.3901
lradius 14.4521
lwrist -9.00756
lhand -21.7918 -8.9206
lfingers 7.12502
lthumb 4.6098 21.0092
rfemur -22.7707 11.1123 15.2809
rtibia 11.3849
rfoot -18.1757 -1.83424
rtoes -31.0661
lfemur -19.2789 -4.26894 -22.3298
ltibia 10.5787
lfoot -6.56372 -4.31612
ltoes -38.7144
974
root -9.52204 16.0866 -11.4202 -53.9249 -87.1454 76.5594
lowerback -31.0737 -3.43301 -5.52653
upperback -1.53217 -2.82032 0.0534789
thorax 14.7763 -1.72731 1.86784
lowerneck 19.3689 1.76261 -12.0255
upperneck -21.098 1.78609 12.8763
head -10.1376 0.214911 6.43858
rclavicle 1.29334e-014 -3.51849e-014
rhumerus -43.5223 -25.0939 -71.0868
rradius 27.9868
rwrist 0.220396
rhand -5.57343 -51.5717
rfingers 7.12502
rthumb 20.2424 279.463
lclavicle 1.29334e-014 -3.51849e-014
lhumerus -33.2527 14.6551 76.4115
lradius 13.3863
lwrist -11.165
lhand -21.9075 -8.73579
lfingers 7.12502
lthumb 4.49812 21.1964
rfemur -22.4819 11.7885 15.2219
rtibia 11.0582
rfoot -18.1155 -2.75029
rtoes -31.1424
lfemur -19.3072 -4.53503 -22.2735
ltibia 10.7168
lfoot -6.6433 -4.40781
ltoes -37.757
